<svg width="120" height="24" viewBox="0 0 120 24" fill="none" xmlns="http://www.w3.org/2000/svg">
<path d="M48.14 12H49.56V17.34C48.9067 17.9133 48.1333 18.3533 47.24 18.66C46.3467 18.9667 45.4067 19.12 44.42 19.12C43.02 19.12 41.76 18.8133 40.64 18.2C39.52 17.5867 38.64 16.74 38 15.66C37.36 14.5667 37.04 13.3467 37.04 12C37.04 10.6533 37.36 9.44 38 8.36C38.64 7.26667 39.52 6.41333 40.64 5.8C41.76 5.18667 43.0267 4.88 44.44 4.88C45.5067 4.88 46.4867 5.05333 47.38 5.4C48.2733 5.73333 49.0267 6.23333 49.64 6.9L48.72 7.84C47.6133 6.74667 46.2067 6.2 44.5 6.2C43.3667 6.2 42.34 6.45333 41.42 6.96C40.5133 7.45333 39.8 8.14667 39.28 9.04C38.76 9.92 38.5 10.9067 38.5 12C38.5 13.0933 38.76 14.08 39.28 14.96C39.8 15.84 40.5133 16.5333 41.42 17.04C42.3267 17.5467 43.3467 17.8 44.48 17.8C45.92 17.8 47.14 17.44 48.14 16.72V12ZM57.7488 19.1C56.7354 19.1 55.8221 18.8733 55.0088 18.42C54.1954 17.9533 53.5554 17.3133 53.0888 16.5C52.6221 15.6867 52.3888 14.7667 52.3888 13.74C52.3888 12.7133 52.6221 11.7933 53.0888 10.98C53.5554 10.1667 54.1954 9.53333 55.0088 9.08C55.8221 8.62667 56.7354 8.4 57.7488 8.4C58.7621 8.4 59.6754 8.62667 60.4888 9.08C61.3021 9.53333 61.9354 10.1667 62.3888 10.98C62.8554 11.7933 63.0888 12.7133 63.0888 13.74C63.0888 14.7667 62.8554 15.6867 62.3888 16.5C61.9354 17.3133 61.3021 17.9533 60.4888 18.42C59.6754 18.8733 58.7621 19.1 57.7488 19.1ZM57.7488 17.84C58.4954 17.84 59.1621 17.6733 59.7488 17.34C60.3488 16.9933 60.8154 16.5067 61.1488 15.88C61.4821 15.2533 61.6488 14.54 61.6488 13.74C61.6488 12.94 61.4821 12.2267 61.1488 11.6C60.8154 10.9733 60.3488 10.4933 59.7488 10.16C59.1621 9.81333 58.4954 9.64 57.7488 9.64C57.0021 9.64 56.3288 9.81333 55.7288 10.16C55.1421 10.4933 54.6754 10.9733 54.3288 11.6C53.9954 12.2267 53.8288 12.94 53.8288 13.74C53.8288 14.54 53.9954 15.2533 54.3288 15.88C54.6754 16.5067 55.1421 16.9933 55.7288 17.34C56.3288 17.6733 57.0021 17.84 57.7488 17.84ZM80.3422 11.78C81.2622 11.98 81.9689 12.38 82.4622 12.98C82.9689 13.5667 83.2222 14.3267 83.2222 15.26C83.2222 16.46 82.7755 17.3867 81.8822 18.04C81.0022 18.68 79.6955 19 77.9622 19H71.5222V5H77.5622C79.1222 5 80.3289 5.31333 81.1822 5.94C82.0489 6.56667 82.4822 7.45333 82.4822 8.6C82.4822 9.37333 82.2889 10.0333 81.9022 10.58C81.5289 11.1133 81.0089 11.5133 80.3422 11.78ZM73.0022 6.22V11.3H77.4622C78.5955 11.3 79.4689 11.0867 80.0822 10.66C80.6955 10.22 81.0022 9.58667 81.0022 8.76C81.0022 7.93333 80.6955 7.30667 80.0822 6.88C79.4689 6.44 78.5955 6.22 77.4622 6.22H73.0022ZM77.9422 17.78C79.1955 17.78 80.1422 17.5667 80.7822 17.14C81.4222 16.7133 81.7422 16.0467 81.7422 15.14C81.7422 13.3933 80.4755 12.52 77.9422 12.52H73.0022V17.78H77.9422ZM89.9803 8.4C91.3536 8.4 92.407 8.74667 93.1403 9.44C93.8736 10.12 94.2403 11.1333 94.2403 12.48V19H92.8803V17.36C92.5603 17.9067 92.087 18.3333 91.4603 18.64C90.847 18.9467 90.1136 19.1 89.2603 19.1C88.087 19.1 87.1536 18.82 86.4603 18.26C85.767 17.7 85.4203 16.96 85.4203 16.04C85.4203 15.1467 85.7403 14.4267 86.3803 13.88C87.0336 13.3333 88.067 13.06 89.4803 13.06H92.8203V12.42C92.8203 11.5133 92.567 10.8267 92.0603 10.36C91.5536 9.88 90.8136 9.64 89.8403 9.64C89.1736 9.64 88.5336 9.75333 87.9203 9.98C87.307 10.1933 86.7803 10.4933 86.3403 10.88L85.7003 9.82C86.2336 9.36667 86.8736 9.02 87.6203 8.78C88.367 8.52667 89.1536 8.4 89.9803 8.4ZM89.4803 17.98C90.2803 17.98 90.967 17.8 91.5403 17.44C92.1136 17.0667 92.5403 16.5333 92.8203 15.84V14.12H89.5203C87.7203 14.12 86.8203 14.7467 86.8203 16C86.8203 16.6133 87.0536 17.1 87.5203 17.46C87.987 17.8067 88.6403 17.98 89.4803 17.98ZM102.496 19.1C101.456 19.1 100.523 18.8733 99.6963 18.42C98.8829 17.9667 98.2429 17.3333 97.7763 16.52C97.3096 15.6933 97.0763 14.7667 97.0763 13.74C97.0763 12.7133 97.3096 11.7933 97.7763 10.98C98.2429 10.1667 98.8829 9.53333 99.6963 9.08C100.523 8.62667 101.456 8.4 102.496 8.4C103.403 8.4 104.21 8.58 104.916 8.94C105.636 9.28667 106.203 9.8 106.616 10.48L105.556 11.2C105.21 10.68 104.77 10.2933 104.236 10.04C103.703 9.77333 103.123 9.64 102.496 9.64C101.736 9.64 101.05 9.81333 100.436 10.16C99.8363 10.4933 99.3629 10.9733 99.0163 11.6C98.6829 12.2267 98.5163 12.94 98.5163 13.74C98.5163 14.5533 98.6829 15.2733 99.0163 15.9C99.3629 16.5133 99.8363 16.9933 100.436 17.34C101.05 17.6733 101.736 17.84 102.496 17.84C103.123 17.84 103.703 17.7133 104.236 17.46C104.77 17.2067 105.21 16.82 105.556 16.3L106.616 17.02C106.203 17.7 105.636 18.22 104.916 18.58C104.196 18.9267 103.39 19.1 102.496 19.1ZM113.15 13.72L110.67 16V19H109.25V4.16H110.67V14.22L116.95 8.48H118.71L114.21 12.78L119.13 19H117.39L113.15 13.72Z" fill="#1CD3FE"/>
<g clip-path="url(#clip0)">
<path d="M12.6451 20.8641L11.5549 21.9047C11.0933 22.3453 10.3469 22.3453 9.89019 21.9047L0.343764 12.7969C-0.117843 12.3563 -0.117843 11.6438 0.343764 11.2078L9.89019 2.09532C10.3518 1.65469 11.0982 1.65469 11.5549 2.09532L12.6451 3.13594C13.1116 3.58125 13.1018 4.30782 12.6255 4.74375L6.70805 10.125H20.8214C21.4746 10.125 22 10.6266 22 11.25V12.75C22 13.3734 21.4746 13.875 20.8214 13.875H6.70805L12.6255 19.2563C13.1067 19.6922 13.1165 20.4188 12.6451 20.8641Z" fill="#1CD3FE"/>
</g>
<defs>
<clipPath id="clip0">
<rect width="22" height="24" fill="white"/>
</clipPath>
</defs>
</svg>
